<?xml version="1.0" encoding="UTF-8"?>
<svg id="Camada_1" data-name="Camada 1" xmlns="http://www.w3.org/2000/svg" viewBox="0 0 942.47 277.42">
  <defs>
    <style>
      .cls-1 {
        font-family: MyriadPro-Regular, 'Myriad Pro';
        font-size: 74.35px;
      }

      .cls-1, .cls-2 {
        fill: #2ba0d3;
      }

      .cls-3 {
        letter-spacing: -.05em;
      }

      .cls-2 {
        stroke-width: 0px;
      }
    </style>
  </defs>
  <g>
    <path class="cls-2" d="M.61,3.92h132.11l-10.71,30.65-91.12-1.1v37.98s38.84-.28,49.51-.85l-9.28,30.04H30.89v42.37c.16,4.32.45,13.6.85,27.84H0c.41-8.95.61-18.44.61-28.45V3.92Z"/>
    <path class="cls-2" d="M109.44,170.84c.89-8.83,1.37-17.75,1.43-26.76v-74.02c-.12-3.4-.39-10.77-.81-22.11h24.52c-.89,9.91-1.34,18.14-1.34,24.7v82.79c0,4,.15,9.13.45,15.39h-24.26Z"/>
    <path class="cls-2" d="M165.57,173.79c.59-10.53.89-19.75.89-27.65V0h0l95.56,98.91V27.27c0-3.48-.38-12.57-1.14-27.27h33v173.79h0l-98.23-100.09s2.84,84.47,4.2,100.09h-34.27Z"/>
    <path class="cls-2" d="M500.13,173.79c.59-10.53.89-19.75.89-27.65V0h0l95.56,98.91V27.27c0-3.48-.38-12.57-1.14-27.27h33v173.79h0l-98.23-100.09s2.84,84.47,4.2,100.09h-34.27Z"/>
    <path class="cls-2" d="M323.26,173.79c3.82-7.89,7.85-17.48,12.07-28.8L395.19,0h0l59.39,142.25c4.22,11.63,8.4,22.15,12.55,31.54h-32.38c-1.12-3.66-2.75-8.24-4.9-13.74l-9.68-25.81h-49.71l-9.92,26.88c-1.43,4.14-2.79,8.36-4.06,12.67h-33.22ZM379.77,105.8h30.71l-15.29-42.54-15.41,42.54Z"/>
    <path class="cls-2" d="M783.67,48.72c-7.25-7.09-13.38-11.87-18.4-14.34-7.17-3.5-14.82-5.26-22.94-5.26-16.33,0-29.87,6.05-40.63,18.16-9.88,11.15-14.82,24.49-14.82,40.03,0,16.97,5.85,30.75,17.56,41.34,10.04,9,22.02,13.5,35.96,13.5,10.28,0,19.99-2.71,29.15-8.13,4.22-2.55,9.76-7.09,16.61-13.62l17.8,24.38c-10.83,9.08-20.04,15.26-27.6,18.52-11.47,5.02-23.1,7.53-34.89,7.53-18.16,0-35.05-5.3-50.66-15.89-8.05-5.42-14.78-12.23-20.19-20.43-9.08-13.86-13.62-29.04-13.62-45.52,0-11.39,2.07-22.74,6.21-34.05,5.1-13.78,13.66-25.77,25.69-35.97C703.74,6.47,721.34.21,741.73.21c14.74,0,28.2,3.31,40.39,9.92,5.42,2.95,11.87,8.13,19.36,15.53l-17.8,23.06Z"/>
    <path class="cls-2" d="M830.39,167.14V3.56h109.69l-10.16,30.47c-14.26-.56-23.78-.84-28.56-.84l-6.81.12h-34.05v34.53h32.38c7.73,0,19.4-.44,35.01-1.31l-9.32,30.11h-58.07v41.94h39.31c6.85-.08,21.07-.8,42.66-2.15l-7.41,30.71h-104.67Z"/>
  </g>
  <text class="cls-1" transform="translate(99.15 258.84)"><tspan x="0" y="0" xml:space="preserve">A    N     A    L  </tspan><tspan class="cls-3" x="411.41" y="0"> </tspan><tspan x="423.75" y="0" xml:space="preserve">Y    S    I    S</tspan></text>
</svg>